<svg width="40" height="40" viewBox="0 0 40 40" fill="none" xmlns="http://www.w3.org/2000/svg">
<path d="M36.5784 18.2351C36.4241 17.5741 36.1284 16.9543 35.7117 16.4184C35.2891 15.886 34.7542 15.4535 34.1451 15.1518C33.6659 14.9146 33.1451 14.7731 32.6117 14.7351C32.3401 11.8186 31.0474 9.09168 28.9617 7.03509C26.5868 4.66371 23.3679 3.33179 20.0117 3.33179C16.6556 3.33179 13.4367 4.66371 11.0617 7.03509C8.97605 9.09168 7.68342 11.8186 7.41174 14.7351C6.87842 14.7731 6.35761 14.9146 5.8784 15.1518C5.26653 15.4492 4.73068 15.8824 4.31174 16.4184C3.89102 16.9526 3.59488 17.5739 3.44494 18.2371C3.295 18.9003 3.29505 19.5886 3.44507 20.2518L6.06174 30.9684C6.51211 32.6104 7.49071 34.0585 8.84631 35.0887C10.2019 36.119 11.8591 36.6741 13.5617 36.6684H26.4117C28.1202 36.6702 29.7818 36.1098 31.1402 35.0737C32.4987 34.0375 33.4784 32.5832 33.9284 30.9351L36.5284 20.2518C36.6951 19.5918 36.7117 18.9018 36.5784 18.2351ZM14.7451 28.9351C14.7451 29.2666 14.6134 29.5846 14.379 29.819C14.1445 30.0534 13.8266 30.1851 13.4951 30.1851C13.1636 30.1851 12.8456 30.0534 12.6112 29.819C12.3768 29.5846 12.2451 29.2666 12.2451 28.9351V22.3684C12.2451 22.0369 12.3768 21.719 12.6112 21.4845C12.8456 21.2501 13.1636 21.1184 13.4951 21.1184C13.8266 21.1184 14.1445 21.2501 14.379 21.4845C14.6134 21.719 14.7451 22.0369 14.7451 22.3684V28.9351ZM21.2617 28.9351C21.2617 29.0992 21.2294 29.2618 21.1666 29.4134C21.1038 29.5651 21.0117 29.7029 20.8956 29.819C20.7795 29.935 20.6418 30.0271 20.4901 30.0899C20.3384 30.1528 20.1759 30.1851 20.0117 30.1851C19.8476 30.1851 19.685 30.1528 19.5334 30.0899C19.3817 30.0271 19.2439 29.935 19.1279 29.819C19.0118 29.7029 18.9197 29.5651 18.8569 29.4134C18.7941 29.2618 18.7617 29.0992 18.7617 28.9351V22.3684C18.7617 22.0369 18.8934 21.719 19.1279 21.4845C19.3623 21.2501 19.6802 21.1184 20.0117 21.1184C20.3433 21.1184 20.6612 21.2501 20.8956 21.4845C21.13 21.719 21.2617 22.0369 21.2617 22.3684V28.9351ZM27.7784 28.9351C27.7784 29.2666 27.6467 29.5846 27.4123 29.819C27.1779 30.0534 26.8599 30.1851 26.5284 30.1851C26.1969 30.1851 25.8789 30.0534 25.6445 29.819C25.4101 29.5846 25.2784 29.2666 25.2784 28.9351V22.3684C25.2784 22.0369 25.4101 21.719 25.6445 21.4845C25.8789 21.2501 26.1969 21.1184 26.5284 21.1184C26.8599 21.1184 27.1779 21.2501 27.4123 21.4845C27.6467 21.719 27.7784 22.0369 27.7784 22.3684V28.9351ZM9.9284 14.7018C10.2025 12.4645 11.2244 10.3854 12.8284 8.80175C14.7367 6.90261 17.3195 5.83645 20.0117 5.83645C22.704 5.83645 25.2868 6.90261 27.1951 8.80175C28.799 10.3854 29.821 12.4645 30.0951 14.7018H9.9284Z" fill="#56091F"/>
</svg>
