<svg width="35" height="35" viewBox="0 0 35 35" fill="none" xmlns="http://www.w3.org/2000/svg">
<path d="M23.9985 18.7413C25.7226 17.3922 26.9811 15.5423 27.5988 13.4488C28.2166 11.3553 28.1628 9.12232 27.445 7.06061C26.7273 4.99891 25.3812 3.21095 23.5941 1.94549C21.807 0.680034 19.6677 0 17.4739 0C15.2801 0 13.1408 0.680034 11.3537 1.94549C9.56662 3.21095 8.22055 4.99891 7.50279 7.06061C6.78504 9.12232 6.73128 11.3553 7.349 13.4488C7.96672 15.5423 9.2252 17.3922 10.9494 18.7413C7.99498 19.9185 5.41718 21.8709 3.49077 24.3904C1.56436 26.9099 0.361568 29.9022 0.0106078 33.0481C-0.0147964 33.2777 0.00553687 33.5102 0.0704464 33.732C0.135356 33.9539 0.24357 34.1609 0.388912 34.3411C0.682442 34.7052 1.10938 34.9384 1.5758 34.9894C2.04222 35.0405 2.50992 34.9051 2.87601 34.6132C3.24209 34.3213 3.47658 33.8967 3.52789 33.4328C3.91406 30.0139 5.55329 26.8563 8.1324 24.5633C10.7115 22.2704 14.0497 21.0028 17.5091 21.0028C20.9685 21.0028 24.3067 22.2704 26.8858 24.5633C29.4649 26.8563 31.1041 30.0139 31.4903 33.4328C31.5381 33.8626 31.7443 34.2595 32.0691 34.547C32.3938 34.8344 32.8142 34.9921 33.2489 34.9894H33.4424C33.9034 34.9367 34.3247 34.7049 34.6146 34.3445C34.9045 33.9841 35.0394 33.5244 34.99 33.0655C34.6374 29.9107 33.4281 26.9108 31.4918 24.3874C29.5555 21.864 26.9651 19.9122 23.9985 18.7413ZM17.4739 17.4995C16.0826 17.4995 14.7225 17.0892 13.5657 16.3205C12.4089 15.5518 11.5073 14.4591 10.9748 13.1808C10.4424 11.9025 10.3031 10.4958 10.5745 9.13872C10.8459 7.78163 11.5159 6.53507 12.4997 5.55667C13.4835 4.57826 14.737 3.91196 16.1015 3.64202C17.4661 3.37208 18.8805 3.51062 20.1659 4.04013C21.4513 4.56964 22.55 5.46633 23.3229 6.61681C24.0959 7.76729 24.5085 9.11989 24.5085 10.5036C24.5085 12.359 23.7673 14.1385 22.4481 15.4505C21.1289 16.7625 19.3396 17.4995 17.4739 17.4995Z" fill="#56091F"/>
</svg>
